<svg width="300" height="300" viewBox="0 0 300 300" fill="none" xmlns="http://www.w3.org/2000/svg">
<path d="M4.42927e-05 150.025C-0.0104555 163.686 1.84586 177.284 5.51748 190.442C17.9644 193.7 30.7782 195.345 43.6444 195.337C126.505 195.337 193.676 128.141 193.676 45.3054C193.657 31.6042 191.775 17.9693 188.081 4.77548C175.658 1.55845 162.872 -0.0462194 150.039 0.00101299C67.1996 0.00101299 4.42927e-05 67.1547 4.42927e-05 150.025Z" fill="url(#paint0_radial)" style="mix-blend-mode:lighten"/>
<path d="M188.088 4.77539C191.759 17.9456 193.615 31.5552 193.605 45.2275C193.605 128.084 126.406 195.259 43.5666 195.259C30.7004 195.267 17.8866 193.622 5.4397 190.364C23.0813 253.592 81.1276 300 149.961 300C232.822 300 300 232.804 300 149.969C300 80.2261 252.486 21.6452 188.088 4.77539Z" fill="#26AAE1"/>
<path d="M226.751 46.7989L220.36 56.9343L222.015 59.271L221.599 97.453L221.351 143.94C221.351 151.212 220.896 158.477 219.988 165.692C219.757 167.522 219.318 167.978 217.764 168.963C213.028 171.942 207.662 171.216 203.168 168.192C202.701 167.877 196.845 162.33 197.03 162.24C206.164 157.837 211.226 158.423 211.226 158.423L215.956 150.038C204.086 142.319 200.753 141.733 186.737 139.745C172.721 137.758 169.14 142.234 169.14 142.234L165.142 149.892C178.656 147.403 183.82 159.273 183.82 159.273C173.279 163.592 161.409 165.912 153.773 159.025C146.137 152.139 145.997 127.729 145.997 127.729V71.7825L145.152 35.5881L139.752 47.6266L139.836 98.9283C139.836 99.5308 139.836 100.139 139.808 100.741L139.504 121.462C139.374 129.869 139.374 138.281 139.144 146.688C139.076 149.278 138.716 151.457 137.066 153.541C135.951 154.907 134.513 155.974 132.882 156.643C131.058 157.359 129.12 157.74 127.161 157.769C112.109 158.417 109.451 146.547 109.451 146.547L108.128 149.363C85.4912 140.917 60.2023 170.591 60.2023 170.591C60.2023 170.591 43.3768 190.236 33.4606 182.021C32.526 181.016 31.7648 179.863 31.2082 178.609C29.2993 173.023 31.7713 166.413 33.9561 161.283C34.7388 159.459 35.6173 157.679 36.5577 155.939C37.545 154.115 38.6073 152.338 39.7448 150.607C40.3454 149.695 40.9742 148.8 41.6312 147.921C42.0873 147.302 42.5941 146.716 43.0052 146.063C43.1628 145.815 44.1314 144.374 43.512 144.211C43.0784 144.104 42.5322 144.594 42.2281 144.836C41.7595 145.212 41.3191 145.622 40.9104 146.063C40.9104 146.063 33.027 155.557 29.9975 163.918C27.8352 169.853 26.3599 175.54 29.0177 183.316C30.662 188.136 35.6905 192.832 40.8034 192.838C46.7047 192.838 50.9393 188.558 54.6952 185.197C60.1685 180.276 65.349 174.448 71.0758 169.814C94.3206 151.001 105.166 159.965 105.166 159.965C100.295 174.352 114.463 183.096 116.676 181.768C118.889 180.439 119.773 167.601 119.773 167.601C139.701 170.033 142.246 149.121 142.246 149.121C143.018 174.684 158.514 173.8 165.153 173.333C171.792 172.865 188.398 165.917 188.398 165.917C194.485 174.994 202.842 186.255 215.573 179.172C228.305 172.088 227.962 139.132 227.962 139.132V68.1282C227.962 68.1282 232.466 75.2961 232.917 74.4684C233.367 73.6406 228.384 48.7866 226.751 46.7989ZM192.548 156.283L187.818 149.56C190.223 149.397 201.18 153.462 201.18 153.462L192.548 156.283Z" fill="white"/>
<path d="M246.257 70.8143C246.257 70.8143 251.325 78.8944 251.736 77.4022C252.147 75.9101 246.589 51.5572 245.041 49.5076L239.472 60.3017L240.694 61.9064L240.485 85.8821C240.367 99.8914 240.564 113.996 240.097 127.966C239.866 134.976 240.052 142.544 239.804 149.554C239.505 158.085 238.79 166.058 238.424 174.583C238.351 176.357 238.143 178.164 238.143 179.944C237.816 182.928 237.901 184.634 241.589 176.458C244.922 169.065 246.094 154.876 246.094 154.876C246.094 154.876 246.758 119.013 246.37 109.937C245.959 100.319 246.257 70.8143 246.257 70.8143Z" fill="white"/>
<path d="M247.585 165.084L248.582 153.879L253.892 158.941L247.585 165.084Z" fill="white"/>
<path d="M236.464 157.528L229.82 150.596L230.569 135.697L236.96 142.173L236.464 157.528Z" fill="white"/>
<path d="M218.636 140.016C218.304 139.521 148.958 70.0373 148.958 70.0373V54.4346L179.873 85.3135H218.636V140.016Z" fill="white"/>
<path d="M63.7215 162.944L59.3124 158.361L137.015 80.4991V66.5518L118.421 85.1444H75.0849V128.146L44.3733 159.189L55.8268 170.81L63.7215 162.944Z" fill="white"/>
<path d="M64.7915 179.358L72.8439 172.14L148.637 247.732L213.276 183.317C213.276 183.317 221.796 180.608 224.729 171.531L236.295 159.853C236.295 159.853 235.732 176.622 235.023 177.782C234.313 178.941 223.237 189.736 223.237 189.736V233.12H180.07L148.936 264.23L117.684 232.98H74.8091V189.848L64.7915 179.358Z" fill="white"/>
<defs>
<radialGradient id="paint0_radial" cx="0" cy="0" r="1" gradientUnits="userSpaceOnUse" gradientTransform="translate(18.0732 247.481) scale(288.541 288.526)">
<stop offset="0.234375" stop-color="#26AAE1"/>
<stop offset="0.77" stop-color="#40BBEC"/>
<stop offset="1" stop-color="#52C7F3"/>
</radialGradient>
</defs>
</svg>
